<mxfile host="app.diagrams.net" modified="2024-03-20T08:09:39.731Z" agent="Mozilla/5.0 (X11; Linux x86_64) AppleWebKit/537.36 (KHTML, like Gecko) Chrome/120.0.0.0 Safari/537.36" version="24.0.7" etag="3YOCVAWR1KalMOoVrtFN" type="github">
  <diagram name="Page-1" id="bdjmN8I5D_qIehQ8QgfU">
    <mxGraphModel>
      <root>
        <mxCell id="0" />
        <mxCell id="1" parent="0" />
      </root>
    </mxGraphModel>
  </diagram>
</mxfile>
